<?xml version="1.0" standalone="no"?>
<!DOCTYPE svg PUBLIC "-//W3C//DTD SVG 20010904//EN"
 "http://www.w3.org/TR/2001/REC-SVG-20010904/DTD/svg10.dtd">
<svg version="1.0" xmlns="http://www.w3.org/2000/svg"
 width="96.000000pt" height="96.000000pt" viewBox="0 0 96.000000 96.000000"
 preserveAspectRatio="xMidYMid meet">

<g transform="translate(0.000000,96.000000) scale(0.100000,-0.100000)"
fill="#000000" stroke="none">
<path d="M0 485 l0 -225 480 0 480 0 0 225 0 225 -480 0 -480 0 0 -225z m908
168 c3 -10 -87 -13 -427 -13 -237 0 -431 4 -431 8 0 5 3 12 7 15 3 4 196 6
426 5 326 -2 421 -6 425 -15z m-818 -83 c0 -36 3 -40 25 -40 23 0 25 4 25 40
0 33 3 40 20 40 19 0 20 -7 20 -100 0 -93 -1 -100 -20 -100 -17 0 -20 7 -20
45 0 41 -2 45 -25 45 -23 0 -25 -4 -25 -45 0 -38 -3 -45 -20 -45 -19 0 -20 7
-20 100 0 93 1 100 20 100 17 0 20 -7 20 -40z m152 -37 c3 -70 5 -78 23 -78
18 0 20 8 23 78 3 69 5 77 22 77 18 0 20 -7 20 -74 0 -85 -22 -126 -67 -126
-50 0 -63 24 -63 117 0 76 2 83 20 83 17 0 19 -8 22 -77z m158 40 c18 -57 26
-59 40 -9 10 38 17 46 36 46 24 0 24 -1 24 -100 0 -93 -1 -100 -20 -100 -17 0
-20 7 -21 53 l-1 52 -15 -42 c-8 -24 -18 -43 -22 -43 -4 0 -14 19 -22 43 l-14
42 -3 -52 c-2 -38 -7 -53 -18 -53 -11 0 -14 19 -14 100 0 92 2 100 19 100 14
0 23 -11 31 -37z m170 -3 c7 -22 16 -40 20 -40 4 0 12 18 19 40 9 29 17 40 31
40 19 0 20 -7 20 -100 0 -82 -3 -100 -15 -100 -11 0 -15 12 -15 46 0 49 -15
52 -25 4 -9 -41 -19 -38 -36 13 l-14 42 -3 -52 c-2 -38 -7 -53 -18 -53 -11 0
-14 19 -14 100 0 90 2 100 18 100 13 0 23 -13 32 -40z m210 25 c0 -10 -10 -15
-30 -15 -25 0 -30 -4 -30 -24 0 -19 6 -25 28 -28 16 -2 27 -9 27 -18 0 -10 -8
-14 -27 -12 -24 3 -28 0 -28 -22 0 -19 6 -25 27 -28 17 -2 29 -10 31 -20 3
-15 -4 -18 -47 -18 l-51 0 0 100 0 100 50 0 c38 0 50 -4 50 -15z m114 -1 c20
-20 21 -62 1 -84 -14 -15 -14 -21 0 -53 19 -46 19 -47 -3 -47 -12 0 -25 16
-39 48 l-21 47 -1 -47 c-1 -36 -5 -48 -16 -48 -12 0 -15 18 -15 100 l0 100 39
0 c23 0 46 -7 55 -16z m11 -224 c0 -13 -54 -15 -419 -18 -412 -3 -469 1 -426
28 9 6 181 9 430 7 361 -2 415 -4 415 -17z m-822 -37 c-9 -3 -10 -10 -3 -24 9
-16 7 -19 -10 -19 -13 0 -20 7 -20 18 0 23 9 32 29 31 10 0 12 -2 4 -6z m117
-2 c0 -5 -6 -12 -12 -14 -7 -3 -4 -6 7 -6 14 -1 16 -4 7 -13 -17 -17 -47 9
-31 28 13 16 29 18 29 5z m67 -7 c9 -23 -13 -40 -32 -24 -12 10 -13 16 -4 26
15 18 28 18 36 -2z m60 7 c10 9 13 6 13 -12 0 -19 -5 -24 -25 -24 -20 0 -25 5
-25 25 0 18 3 21 12 12 8 -8 15 -9 25 -1z m63 -2 c0 7 5 9 10 6 6 -3 10 -15
10 -26 0 -16 -3 -18 -19 -10 -10 6 -21 7 -25 4 -3 -3 -6 4 -6 17 0 19 2 20 15
10 11 -9 15 -9 15 -1z m63 4 c-9 -3 -10 -10 -3 -24 8 -15 7 -19 -5 -19 -9 0
-15 9 -15 25 0 17 5 25 18 24 10 0 12 -3 5 -6z m50 -19 c3 -19 1 -24 -10 -20
-8 3 -17 6 -19 6 -2 0 -4 9 -4 20 0 29 27 25 33 -6z m57 16 c0 -5 -8 -11 -17
-11 -17 -1 -17 -2 0 -6 21 -5 23 -23 3 -23 -19 0 -29 17 -22 35 6 17 36 21 36
5z m51 1 c-9 -6 -10 -11 -2 -15 6 -4 11 -11 11 -17 0 -12 -27 -12 -35 1 -11
17 3 40 22 40 14 0 15 -2 4 -9z m75 -13 c-2 -32 -26 -35 -26 -4 0 15 6 26 14
26 7 0 13 -9 12 -22z m53 15 c-1 -16 -18 -48 -18 -36 -1 6 -4 18 -7 27 -4 11
-1 16 10 16 9 0 16 -3 15 -7z m58 -9 c9 -23 -13 -40 -32 -24 -12 10 -13 16 -4
26 15 18 28 18 36 -2z m56 9 c7 -12 -6 -38 -20 -40 -8 -2 -13 7 -13 22 0 23
23 35 33 18z m49 -2 c-8 -4 -14 -12 -14 -16 0 -4 6 -12 14 -17 9 -7 8 -8 -7
-6 -31 5 -28 48 3 48 13 0 14 -2 4 -9z m-759 -18 c-7 -2 -19 -2 -25 0 -7 3 -2
5 12 5 14 0 19 -2 13 -5z"/>
<path d="M830 555 c0 -18 5 -25 19 -25 23 0 34 23 18 39 -19 19 -37 12 -37
-14z"/>
<path d="M770 320 c0 -5 5 -10 11 -10 5 0 7 5 4 10 -3 6 -8 10 -11 10 -2 0 -4
-4 -4 -10z"/>
</g>
</svg>
